<svg width="441" height="155" viewBox="0 0 441 155" fill="none" xmlns="http://www.w3.org/2000/svg">
<path d="M341.953 107.796C340.357 107.796 337.408 104.916 333.107 99.158C328.805 93.3303 323.602 85.2477 317.497 74.9104L327.071 71.9965C332.829 80.7381 337.616 87.5719 341.432 92.4977C345.317 97.4236 348.752 100.997 351.735 103.217C354.718 105.437 357.632 106.547 360.477 106.547C360.615 106.547 360.685 106.755 360.685 107.171C360.685 107.587 360.615 107.796 360.477 107.796H341.953ZM319.578 42.4414C325.892 42.4414 330.783 43.6208 334.252 45.9797C337.72 48.2692 339.455 51.4953 339.455 55.6579C339.455 59.6125 338.31 63.1855 336.021 66.3769C333.801 69.5683 330.887 72.0659 327.279 73.8697C323.671 75.6042 319.89 76.4714 315.936 76.4714C313.23 76.4714 311.322 76.4367 310.212 76.3673V99.3662C310.212 101.517 310.385 103.078 310.732 104.049C311.079 105.02 311.738 105.68 312.71 106.026C313.75 106.373 315.381 106.547 317.601 106.547C317.74 106.547 317.809 106.755 317.809 107.171C317.809 107.587 317.74 107.796 317.601 107.796C315.311 107.796 313.507 107.761 312.189 107.692L304.28 107.587L296.683 107.692C295.296 107.761 293.423 107.796 291.064 107.796C290.856 107.796 290.751 107.587 290.751 107.171C290.751 106.755 290.856 106.547 291.064 106.547C293.284 106.547 294.879 106.373 295.851 106.026C296.891 105.68 297.585 105.02 297.932 104.049C298.348 103.009 298.556 101.448 298.556 99.3662V51.1831C298.556 49.1017 298.383 47.5754 298.036 46.6041C297.689 45.6328 296.996 44.9737 295.955 44.6268C294.914 44.2105 293.318 44.0024 291.168 44.0024C291.029 44.0024 290.96 43.7943 290.96 43.378C290.96 42.9617 291.029 42.7536 291.168 42.7536L296.683 42.8577C299.875 42.9964 302.407 43.0658 304.28 43.0658C306.639 43.0658 309.102 42.9617 311.669 42.7536C312.571 42.6842 313.681 42.6148 314.999 42.5455C316.387 42.4761 317.913 42.4414 319.578 42.4414ZM327.591 59.6125C327.591 53.9235 326.759 50.0036 325.094 47.8529C323.429 45.7022 321.035 44.6268 317.913 44.6268C315.138 44.6268 313.161 45.1472 311.981 46.1878C310.802 47.2285 310.212 48.9629 310.212 51.3912V73.4534C311.877 73.731 313.889 73.8697 316.248 73.8697C320.272 73.8697 323.151 72.7597 324.885 70.5396C326.689 68.2501 327.591 64.6077 327.591 59.6125Z" fill="#D4AF37"/>
<path d="M224.528 45.1474L227.65 45.3556V94.5794C227.65 98.2564 228.413 101.17 229.94 103.321C231.466 105.472 233.582 106.547 236.288 106.547C236.427 106.547 236.496 106.755 236.496 107.172C236.496 107.588 236.427 107.796 236.288 107.796C234.345 107.796 232.854 107.761 231.813 107.692L226.193 107.588L219.741 107.692C218.562 107.761 216.862 107.796 214.642 107.796C214.434 107.796 214.33 107.588 214.33 107.172C214.33 106.755 214.434 106.547 214.642 106.547C217.695 106.547 220.088 105.472 221.823 103.321C223.626 101.17 224.528 98.2564 224.528 94.5794V45.1474ZM277.603 109.357C277.603 109.565 277.429 109.704 277.082 109.773C276.805 109.843 276.597 109.808 276.458 109.669L225.153 51.2874C222.724 48.5123 220.643 46.6044 218.909 45.5637C217.174 44.523 215.405 44.0027 213.601 44.0027C213.462 44.0027 213.393 43.7946 213.393 43.3783C213.393 42.962 213.462 42.7539 213.601 42.7539L217.972 42.858C218.874 42.9274 220.192 42.962 221.927 42.962L229.836 42.858C230.807 42.7886 231.986 42.7539 233.374 42.7539C233.929 42.7539 234.345 42.8927 234.623 43.1702C234.9 43.4477 235.386 44.0374 236.08 44.9393C237.259 46.535 238.092 47.6104 238.577 48.1654L276.77 92.1858L277.603 109.357ZM277.603 109.357L274.585 106.235V56.0745C274.585 52.3281 273.821 49.3795 272.295 47.2288C270.769 45.0781 268.653 44.0027 265.947 44.0027C265.808 44.0027 265.739 43.7946 265.739 43.3783C265.739 42.962 265.808 42.7539 265.947 42.7539L270.422 42.858C272.642 42.9967 274.515 43.0661 276.042 43.0661C277.429 43.0661 279.372 42.9967 281.869 42.858L286.552 42.7539C286.691 42.7539 286.76 42.962 286.76 43.3783C286.76 43.7946 286.691 44.0027 286.552 44.0027C283.777 44.0027 281.592 45.1128 279.996 47.3329C278.4 49.4836 277.603 52.3975 277.603 56.0745V109.357Z" fill="#D4AF37"/>
<path d="M200.406 99.3665C200.406 101.517 200.579 103.078 200.926 104.049C201.273 105.021 201.932 105.68 202.904 106.027C203.944 106.374 205.575 106.547 207.795 106.547C208.003 106.547 208.107 106.755 208.107 107.172C208.107 107.588 208.003 107.796 207.795 107.796C205.505 107.796 203.701 107.761 202.383 107.692L194.474 107.588L186.773 107.692C185.386 107.761 183.512 107.796 181.153 107.796C181.015 107.796 180.945 107.588 180.945 107.172C180.945 106.755 181.015 106.547 181.153 106.547C183.374 106.547 185.004 106.374 186.045 106.027C187.085 105.68 187.779 105.021 188.126 104.049C188.542 103.009 188.75 101.448 188.75 99.3665V51.1833C188.75 49.102 188.542 47.5757 188.126 46.6044C187.779 45.6331 187.085 44.974 186.045 44.6271C185.004 44.2108 183.374 44.0027 181.153 44.0027C181.015 44.0027 180.945 43.7946 180.945 43.3783C180.945 42.962 181.015 42.7539 181.153 42.7539L186.773 42.858C189.964 42.9967 192.531 43.0661 194.474 43.0661C196.625 43.0661 199.296 42.9967 202.487 42.858L207.795 42.7539C208.003 42.7539 208.107 42.962 208.107 43.3783C208.107 43.7946 208.003 44.0027 207.795 44.0027C205.644 44.0027 204.048 44.2108 203.008 44.6271C201.967 45.0434 201.273 45.7719 200.926 46.8125C200.579 47.7838 200.406 49.3101 200.406 51.3915V99.3665Z" fill="#D4AF37"/>
<path d="M178.327 42.7539C178.535 42.7539 178.639 42.962 178.639 43.3783C178.639 43.7946 178.535 44.0027 178.327 44.0027C175.83 44.0027 173.436 45.1128 171.146 47.3329C168.857 49.553 167.018 52.5362 165.631 56.2826L146.379 107.692C146.309 107.969 145.928 108.108 145.234 108.108C144.54 108.108 144.158 107.969 144.089 107.692L117.552 51.3915C116.303 48.8939 115.054 47.0553 113.805 45.8759C112.557 44.6271 111.169 44.0027 109.643 44.0027C109.435 44.0027 109.331 43.7946 109.331 43.3783C109.331 42.962 109.435 42.7539 109.643 42.7539C110.683 42.7539 111.412 42.7886 111.828 42.858C113.216 42.9967 115.02 43.0661 117.24 43.0661C123.206 43.0661 128.271 42.9967 132.433 42.858C133.544 42.7886 134.931 42.7539 136.596 42.7539C136.804 42.7539 136.908 42.962 136.908 43.3783C136.908 43.7946 136.804 44.0027 136.596 44.0027C134.515 44.0027 132.884 44.4537 131.705 45.3556C130.595 46.1881 130.04 47.4022 130.04 48.9979C130.04 50.1774 130.422 51.5996 131.185 53.2647L150.125 93.6428L145.234 102.176L162.717 55.9704C163.411 54.0279 163.758 52.3628 163.758 50.9752C163.758 48.8245 163.099 47.1247 161.78 45.8759C160.532 44.6271 158.693 44.0027 156.265 44.0027C156.057 44.0027 155.953 43.7946 155.953 43.3783C155.953 42.962 156.057 42.7539 156.265 42.7539L161.364 42.858C164.278 42.9967 166.88 43.0661 169.169 43.0661C170.487 43.0661 172.118 42.9967 174.06 42.858L178.327 42.7539Z" fill="#D4AF37"/>
<path d="M64.1729 81.0506H94.1443L94.8728 83.9645H62.6119L64.1729 81.0506ZM119.433 106.547C119.78 106.547 119.953 106.755 119.953 107.171C119.953 107.588 119.78 107.796 119.433 107.796C118.045 107.796 115.894 107.726 112.98 107.588C109.928 107.449 107.742 107.38 106.424 107.38C104.69 107.38 102.574 107.449 100.076 107.588C97.7173 107.726 95.8441 107.796 94.4565 107.796C94.179 107.796 94.0402 107.588 94.0402 107.171C94.0402 106.755 94.179 106.547 94.4565 106.547C96.2603 106.547 97.5438 106.374 98.307 106.027C99.1395 105.61 99.5558 104.917 99.5558 103.945C99.5558 102.766 98.862 100.789 97.4744 98.0136L76.3488 56.2826L81.4481 47.3328L60.7387 93.0183C59.8368 95.0303 59.3858 96.9035 59.3858 98.638C59.3858 101.136 60.2531 103.078 61.9875 104.466C63.7914 105.853 66.1849 106.547 69.1682 106.547C69.515 106.547 69.6885 106.755 69.6885 107.171C69.6885 107.588 69.515 107.796 69.1682 107.796C67.9194 107.796 66.1155 107.726 63.7567 107.588C61.1203 107.449 58.8308 107.38 56.8882 107.38C55.015 107.38 52.7602 107.449 50.1239 107.588C47.765 107.726 45.8571 107.796 44.4002 107.796C44.1226 107.796 43.9839 107.588 43.9839 107.171C43.9839 106.755 44.1226 106.547 44.4002 106.547C46.3427 106.547 47.9731 106.165 49.2913 105.402C50.6095 104.57 51.9277 103.148 53.2459 101.136C54.5641 99.0542 56.1251 96.0016 57.9289 91.9777L80.5115 42.3376C80.6502 42.1295 80.9624 42.0254 81.4481 42.0254C82.0031 42.0254 82.3153 42.1295 82.3847 42.3376L108.401 93.5387C110.83 98.4645 112.842 101.864 114.437 103.737C116.033 105.61 117.698 106.547 119.433 106.547Z" fill="#D4AF37"/>
<path d="M10.4067 53.2649C10.4067 55.7625 11.0311 57.9826 12.2799 59.9252C13.5981 61.8678 15.1938 63.5676 17.067 65.0245C18.9402 66.4814 21.4725 68.2506 24.6639 70.3319C28.1328 72.552 30.908 74.4946 32.9893 76.1597C35.0707 77.8248 36.8398 79.8714 38.2967 82.2997C39.7537 84.6585 40.4822 87.399 40.4822 90.521C40.4822 94.1286 39.5109 97.3547 37.5683 100.199C35.6257 102.974 32.9199 105.16 29.451 106.755C26.0515 108.282 22.2357 109.045 18.0036 109.045C14.951 109.045 11.6902 108.629 8.22131 107.796C4.82178 106.894 2.5323 105.923 1.35287 104.882C1.00598 104.605 0.728471 104.362 0.520336 104.154C0.38158 103.876 0.312202 103.46 0.312202 102.905L0 86.3583V86.2542C0 85.9767 0.173445 85.838 0.520336 85.838C0.867227 85.7686 1.07536 85.8726 1.14474 86.1502C3.22608 90.3822 5.02992 93.8164 6.55624 96.4528C8.15193 99.0892 10.1292 101.413 12.4881 103.425C14.9163 105.437 17.6567 106.443 20.7094 106.443C23.4845 106.443 25.774 105.715 27.5778 104.258C29.3816 102.732 30.2836 100.165 30.2836 96.5569C30.2836 93.5042 29.5898 90.8332 28.2022 88.5437C26.884 86.2542 25.2536 84.3116 23.3111 82.7159C21.3685 81.1202 18.6974 79.2123 15.2979 76.9922C11.9677 74.8415 9.36605 73.003 7.49284 71.4767C5.68901 69.9504 4.128 68.1118 2.80982 65.9611C1.49163 63.8104 0.832538 61.2781 0.832538 58.3642C0.832538 54.6872 1.87321 51.5998 3.95455 49.1022C6.10528 46.5352 8.84571 44.662 12.1759 43.4826C15.506 42.2338 19.0096 41.6094 22.6867 41.6094C25.1149 41.6094 27.5778 41.8522 30.0754 42.3378C32.573 42.7541 34.585 43.2745 36.1113 43.8989C36.7357 44.1764 37.152 44.4886 37.3601 44.8355C37.5683 45.113 37.6723 45.4946 37.6723 45.9802V61.2781C37.6723 61.4862 37.4989 61.6597 37.152 61.7984C36.8051 61.8678 36.597 61.7984 36.5276 61.5903L35.6951 59.613C33.9606 55.2422 31.9139 51.5305 29.5551 48.4778C27.2656 45.4252 24.0395 43.8989 19.8768 43.8989C17.1017 43.8989 14.8122 44.6967 13.0084 46.2924C11.274 47.8881 10.4067 50.2123 10.4067 53.2649Z" fill="#D4AF37"/>
<path d="M99.5028 131.62C99.5028 131.06 99.4468 130.649 99.3348 130.388C99.2228 130.108 99.0082 129.912 98.6908 129.8C98.3735 129.688 97.8695 129.632 97.1788 129.632C97.1228 129.632 97.0948 129.576 97.0948 129.464C97.0948 129.352 97.1228 129.296 97.1788 129.296L98.5508 129.324C99.4842 129.361 100.324 129.38 101.071 129.38C101.575 129.38 102.293 129.361 103.227 129.324L104.795 129.296C104.851 129.296 104.879 129.352 104.879 129.464C104.879 129.576 104.851 129.632 104.795 129.632C104.16 129.632 103.684 129.688 103.367 129.8C103.068 129.893 102.863 130.071 102.751 130.332C102.657 130.593 102.611 131.004 102.611 131.564V144.528C102.611 145.088 102.657 145.508 102.751 145.788C102.863 146.049 103.068 146.227 103.367 146.32C103.665 146.413 104.141 146.46 104.795 146.46C104.851 146.46 104.879 146.516 104.879 146.628C104.879 146.74 104.851 146.796 104.795 146.796C104.141 146.796 103.619 146.787 103.227 146.768L101.071 146.74L98.5508 146.768C98.2148 146.787 97.7575 146.796 97.1788 146.796C97.1228 146.796 97.0948 146.74 97.0948 146.628C97.0948 146.516 97.1228 146.46 97.1788 146.46C97.8695 146.46 98.3735 146.413 98.6908 146.32C99.0082 146.227 99.2228 146.049 99.3348 145.788C99.4468 145.527 99.5028 145.107 99.5028 144.528V131.62ZM88.8068 137.304H100.931V138.088H88.8068V137.304ZM87.3508 131.564C87.3508 131.004 87.2948 130.593 87.1828 130.332C87.0708 130.071 86.8655 129.893 86.5668 129.8C86.2868 129.688 85.8295 129.632 85.1948 129.632C85.1388 129.632 85.1108 129.576 85.1108 129.464C85.1108 129.352 85.1388 129.296 85.1948 129.296L86.7068 129.324C87.5655 129.361 88.2562 129.38 88.7788 129.38C89.4882 129.38 90.3095 129.361 91.2428 129.324L92.7828 129.296C92.8202 129.296 92.8388 129.352 92.8388 129.464C92.8388 129.576 92.8202 129.632 92.7828 129.632C92.1108 129.632 91.6162 129.688 91.2988 129.8C90.9815 129.912 90.7575 130.108 90.6268 130.388C90.5148 130.649 90.4588 131.06 90.4588 131.62V144.528C90.4588 145.088 90.5148 145.508 90.6268 145.788C90.7388 146.049 90.9535 146.227 91.2708 146.32C91.5882 146.413 92.0922 146.46 92.7828 146.46C92.8202 146.46 92.8388 146.516 92.8388 146.628C92.8388 146.74 92.8202 146.796 92.7828 146.796C92.1295 146.796 91.6068 146.787 91.2148 146.768L88.7788 146.74L86.6788 146.768C86.3055 146.787 85.7922 146.796 85.1388 146.796C85.1015 146.796 85.0828 146.74 85.0828 146.628C85.0828 146.516 85.1015 146.46 85.1388 146.46C85.7922 146.46 86.2682 146.413 86.5668 146.32C86.8655 146.227 87.0708 146.049 87.1828 145.788C87.2948 145.508 87.3508 145.088 87.3508 144.528V131.564ZM112.318 147.16C111.16 147.16 110.143 146.899 109.266 146.376C108.407 145.835 107.744 145.116 107.278 144.22C106.811 143.305 106.578 142.316 106.578 141.252C106.578 140.039 106.886 139.012 107.502 138.172C108.118 137.313 108.902 136.679 109.854 136.268C110.806 135.839 111.786 135.624 112.794 135.624C113.951 135.624 114.959 135.895 115.818 136.436C116.676 136.977 117.33 137.696 117.778 138.592C118.244 139.469 118.478 140.412 118.478 141.42C118.478 142.54 118.198 143.539 117.638 144.416C117.078 145.275 116.322 145.947 115.37 146.432C114.436 146.917 113.419 147.16 112.318 147.16ZM113.158 146.572C113.886 146.572 114.436 146.217 114.81 145.508C115.202 144.78 115.398 143.744 115.398 142.4C115.398 141.093 115.23 139.973 114.894 139.04C114.558 138.107 114.119 137.407 113.578 136.94C113.036 136.455 112.458 136.212 111.842 136.212C110.348 136.212 109.602 137.547 109.602 140.216C109.602 141.467 109.76 142.577 110.078 143.548C110.395 144.5 110.824 145.247 111.366 145.788C111.907 146.311 112.504 146.572 113.158 146.572ZM124.757 147.132C123.73 147.132 122.918 146.815 122.321 146.18C121.742 145.527 121.453 144.677 121.453 143.632V139.516C121.453 138.303 121.164 137.696 120.585 137.696C120.38 137.696 120.146 137.761 119.885 137.892H119.857C119.782 137.892 119.726 137.845 119.689 137.752C119.652 137.64 119.661 137.575 119.717 137.556L123.469 135.764L123.609 135.736C123.702 135.736 123.796 135.783 123.889 135.876C124.001 135.951 124.057 136.025 124.057 136.1V142.288C124.057 144.304 124.832 145.312 126.381 145.312C126.904 145.312 127.436 145.163 127.977 144.864C128.537 144.565 128.976 144.173 129.293 143.688L129.461 144.024C128.789 144.995 128.061 145.76 127.277 146.32C126.493 146.861 125.653 147.132 124.757 147.132ZM131.365 143.548C131.365 144.183 131.421 144.631 131.533 144.892C131.664 145.153 131.869 145.284 132.149 145.284C132.41 145.284 132.793 145.181 133.297 144.976H133.353C133.409 144.976 133.456 145.023 133.493 145.116C133.549 145.209 133.549 145.265 133.493 145.284L129.629 147.16C129.592 147.179 129.545 147.188 129.489 147.188C129.284 147.188 129.106 146.945 128.957 146.46C128.826 145.975 128.761 145.321 128.761 144.5V139.516C128.761 138.303 128.472 137.696 127.893 137.696C127.688 137.696 127.445 137.761 127.165 137.892H127.137C127.081 137.892 127.034 137.845 126.997 137.752C126.96 137.64 126.969 137.575 127.025 137.556L130.777 135.764C130.814 135.745 130.861 135.736 130.917 135.736C131.01 135.736 131.104 135.783 131.197 135.876C131.309 135.951 131.365 136.025 131.365 136.1V143.548ZM136.822 137.332C136.822 137.873 137.008 138.34 137.382 138.732C137.774 139.124 138.334 139.535 139.062 139.964C139.771 140.375 140.294 140.701 140.63 140.944C140.984 141.168 141.302 141.495 141.582 141.924C141.862 142.335 142.002 142.839 142.002 143.436C142.002 144.071 141.843 144.668 141.526 145.228C141.208 145.788 140.732 146.245 140.098 146.6C139.463 146.936 138.707 147.104 137.83 147.104C136.803 147.104 135.832 146.852 134.918 146.348C134.806 146.236 134.75 146.124 134.75 146.012L134.694 143.24C134.694 143.184 134.74 143.156 134.834 143.156C134.946 143.137 135.011 143.147 135.03 143.184C135.328 144.117 135.823 144.911 136.514 145.564C137.204 146.217 137.904 146.544 138.614 146.544C139.006 146.544 139.314 146.423 139.538 146.18C139.78 145.937 139.902 145.583 139.902 145.116C139.902 144.425 139.706 143.884 139.314 143.492C138.922 143.081 138.343 142.661 137.578 142.232C136.924 141.877 136.43 141.588 136.094 141.364C135.758 141.14 135.459 140.823 135.198 140.412C134.936 140.001 134.806 139.497 134.806 138.9C134.806 137.799 135.198 136.996 135.982 136.492C136.766 135.969 137.727 135.708 138.866 135.708C139.295 135.708 139.678 135.736 140.014 135.792C140.368 135.848 140.76 135.96 141.19 136.128C141.358 136.184 141.442 136.287 141.442 136.436C141.442 136.903 141.432 137.267 141.414 137.528L141.386 138.928C141.386 138.984 141.33 139.012 141.218 139.012C141.106 139.012 141.05 138.984 141.05 138.928C141.05 138.573 140.9 138.191 140.602 137.78C140.303 137.351 139.911 136.987 139.426 136.688C138.959 136.389 138.474 136.24 137.97 136.24C137.204 136.24 136.822 136.604 136.822 137.332ZM149.531 147.132C148.355 147.132 147.338 146.889 146.479 146.404C145.621 145.9 144.967 145.237 144.519 144.416C144.071 143.576 143.847 142.671 143.847 141.7C143.847 140.617 144.118 139.619 144.659 138.704C145.201 137.789 145.947 137.071 146.899 136.548C147.87 136.007 148.962 135.736 150.175 135.736C151.333 135.736 152.229 135.997 152.863 136.52C153.498 137.043 153.815 137.855 153.815 138.956C153.815 139.535 153.713 139.824 153.507 139.824H150.819C150.857 138.685 150.745 137.817 150.483 137.22C150.222 136.604 149.765 136.296 149.111 136.296C148.365 136.296 147.767 136.679 147.319 137.444C146.89 138.209 146.675 139.227 146.675 140.496C146.675 142.139 147.049 143.427 147.795 144.36C148.561 145.293 149.653 145.76 151.071 145.76C151.575 145.76 152.005 145.704 152.359 145.592C152.714 145.461 153.181 145.256 153.759 144.976L153.815 144.948C153.853 144.948 153.89 144.985 153.927 145.06C153.983 145.135 153.993 145.191 153.955 145.228C153.265 145.9 152.565 146.385 151.855 146.684C151.146 146.983 150.371 147.132 149.531 147.132ZM145.667 139.32L151.799 139.208V139.824L145.695 139.852L145.667 139.32ZM167.853 147.16C166.695 147.16 165.678 146.899 164.801 146.376C163.942 145.835 163.279 145.116 162.813 144.22C162.346 143.305 162.113 142.316 162.113 141.252C162.113 140.039 162.421 139.012 163.037 138.172C163.653 137.313 164.437 136.679 165.389 136.268C166.341 135.839 167.321 135.624 168.329 135.624C169.486 135.624 170.494 135.895 171.353 136.436C172.211 136.977 172.865 137.696 173.313 138.592C173.779 139.469 174.013 140.412 174.013 141.42C174.013 142.54 173.733 143.539 173.173 144.416C172.613 145.275 171.857 145.947 170.905 146.432C169.971 146.917 168.954 147.16 167.853 147.16ZM168.693 146.572C169.421 146.572 169.971 146.217 170.345 145.508C170.737 144.78 170.933 143.744 170.933 142.4C170.933 141.093 170.765 139.973 170.429 139.04C170.093 138.107 169.654 137.407 169.113 136.94C168.571 136.455 167.993 136.212 167.377 136.212C165.883 136.212 165.137 137.547 165.137 140.216C165.137 141.467 165.295 142.577 165.613 143.548C165.93 144.5 166.359 145.247 166.901 145.788C167.442 146.311 168.039 146.572 168.693 146.572ZM175.672 146.796C175.597 146.796 175.56 146.74 175.56 146.628C175.56 146.516 175.597 146.46 175.672 146.46C176.157 146.46 176.512 146.413 176.736 146.32C176.979 146.227 177.137 146.049 177.212 145.788C177.305 145.508 177.352 145.088 177.352 144.528V138.228C177.352 137.649 177.231 137.276 176.988 137.108C176.745 136.921 176.269 136.828 175.56 136.828C175.504 136.828 175.476 136.744 175.476 136.576C175.476 136.408 175.504 136.324 175.56 136.324C176.213 136.324 176.661 136.24 176.904 136.072C177.147 135.885 177.277 135.559 177.296 135.092C177.389 132.049 177.968 129.856 179.032 128.512C180.096 127.149 181.701 126.468 183.848 126.468C184.893 126.468 185.705 126.617 186.284 126.916C186.863 127.196 187.152 127.597 187.152 128.12C187.152 128.549 187.003 128.885 186.704 129.128C186.424 129.371 186.097 129.492 185.724 129.492C185.276 129.492 184.949 129.389 184.744 129.184C184.539 128.979 184.352 128.68 184.184 128.288C184.016 127.896 183.839 127.607 183.652 127.42C183.465 127.215 183.167 127.112 182.756 127.112C181.897 127.112 181.216 127.709 180.712 128.904C180.227 130.099 179.984 131.965 179.984 134.504V144.528C179.984 145.107 180.04 145.527 180.152 145.788C180.264 146.049 180.488 146.227 180.824 146.32C181.179 146.413 181.729 146.46 182.476 146.46C182.551 146.46 182.588 146.516 182.588 146.628C182.588 146.74 182.551 146.796 182.476 146.796L180.544 146.768C180.115 146.749 179.48 146.74 178.64 146.74L176.932 146.768C176.633 146.787 176.213 146.796 175.672 146.796ZM182.98 137.416C181.692 137.117 180.292 136.968 178.78 136.968V136.24C179.919 136.24 181.347 136.147 183.064 135.96C183.12 135.96 183.167 136.035 183.204 136.184C183.241 136.315 183.26 136.464 183.26 136.632C183.26 136.819 183.223 137.005 183.148 137.192C183.092 137.36 183.036 137.435 182.98 137.416ZM204.85 146.796C204.42 146.796 203.627 146.021 202.47 144.472C201.312 142.904 199.912 140.729 198.27 137.948L200.846 137.164C202.395 139.516 203.683 141.355 204.71 142.68C205.755 144.005 206.679 144.967 207.482 145.564C208.284 146.161 209.068 146.46 209.834 146.46C209.871 146.46 209.89 146.516 209.89 146.628C209.89 146.74 209.871 146.796 209.834 146.796H204.85ZM198.83 129.212C200.528 129.212 201.844 129.529 202.778 130.164C203.711 130.78 204.178 131.648 204.178 132.768C204.178 133.832 203.87 134.793 203.254 135.652C202.656 136.511 201.872 137.183 200.902 137.668C199.931 138.135 198.914 138.368 197.85 138.368C197.122 138.368 196.608 138.359 196.31 138.34V144.528C196.31 145.107 196.356 145.527 196.45 145.788C196.543 146.049 196.72 146.227 196.982 146.32C197.262 146.413 197.7 146.46 198.298 146.46C198.335 146.46 198.354 146.516 198.354 146.628C198.354 146.74 198.335 146.796 198.298 146.796C197.682 146.796 197.196 146.787 196.842 146.768L194.714 146.74L192.67 146.768C192.296 146.787 191.792 146.796 191.158 146.796C191.102 146.796 191.074 146.74 191.074 146.628C191.074 146.516 191.102 146.46 191.158 146.46C191.755 146.46 192.184 146.413 192.446 146.32C192.726 146.227 192.912 146.049 193.006 145.788C193.118 145.508 193.174 145.088 193.174 144.528V131.564C193.174 131.004 193.127 130.593 193.034 130.332C192.94 130.071 192.754 129.893 192.474 129.8C192.194 129.688 191.764 129.632 191.186 129.632C191.148 129.632 191.13 129.576 191.13 129.464C191.13 129.352 191.148 129.296 191.186 129.296L192.67 129.324C193.528 129.361 194.21 129.38 194.714 129.38C195.348 129.38 196.011 129.352 196.702 129.296C196.944 129.277 197.243 129.259 197.598 129.24C197.971 129.221 198.382 129.212 198.83 129.212ZM200.986 133.832C200.986 132.301 200.762 131.247 200.314 130.668C199.866 130.089 199.222 129.8 198.382 129.8C197.635 129.8 197.103 129.94 196.786 130.22C196.468 130.5 196.31 130.967 196.31 131.62V137.556C196.758 137.631 197.299 137.668 197.934 137.668C199.016 137.668 199.791 137.369 200.258 136.772C200.743 136.156 200.986 135.176 200.986 133.832ZM215.648 147.132C214.472 147.132 213.455 146.889 212.596 146.404C211.738 145.9 211.084 145.237 210.636 144.416C210.188 143.576 209.964 142.671 209.964 141.7C209.964 140.617 210.235 139.619 210.776 138.704C211.318 137.789 212.064 137.071 213.016 136.548C213.987 136.007 215.079 135.736 216.292 135.736C217.45 135.736 218.346 135.997 218.98 136.52C219.615 137.043 219.932 137.855 219.932 138.956C219.932 139.535 219.83 139.824 219.624 139.824H216.936C216.974 138.685 216.862 137.817 216.6 137.22C216.339 136.604 215.882 136.296 215.228 136.296C214.482 136.296 213.884 136.679 213.436 137.444C213.007 138.209 212.792 139.227 212.792 140.496C212.792 142.139 213.166 143.427 213.912 144.36C214.678 145.293 215.77 145.76 217.188 145.76C217.692 145.76 218.122 145.704 218.476 145.592C218.831 145.461 219.298 145.256 219.876 144.976L219.932 144.948C219.97 144.948 220.007 144.985 220.044 145.06C220.1 145.135 220.11 145.191 220.072 145.228C219.382 145.9 218.682 146.385 217.972 146.684C217.263 146.983 216.488 147.132 215.648 147.132ZM211.784 139.32L217.916 139.208V139.824L211.812 139.852L211.784 139.32ZM221.527 146.796C221.453 146.796 221.415 146.74 221.415 146.628C221.415 146.516 221.453 146.46 221.527 146.46C222.013 146.46 222.367 146.413 222.591 146.32C222.834 146.227 222.993 146.049 223.067 145.788C223.161 145.508 223.207 145.088 223.207 144.528V138.228C223.207 137.649 223.086 137.276 222.843 137.108C222.601 136.921 222.125 136.828 221.415 136.828C221.359 136.828 221.331 136.744 221.331 136.576C221.331 136.408 221.359 136.324 221.415 136.324C222.069 136.324 222.517 136.24 222.759 136.072C223.002 135.885 223.133 135.559 223.151 135.092C223.282 132.068 223.935 129.875 225.111 128.512C226.287 127.149 227.995 126.468 230.235 126.468C231.505 126.468 232.503 126.664 233.231 127.056C233.959 127.448 234.323 127.971 234.323 128.624C234.323 128.979 234.202 129.268 233.959 129.492C233.735 129.716 233.399 129.828 232.951 129.828C232.522 129.828 232.195 129.725 231.971 129.52C231.747 129.296 231.505 128.951 231.243 128.484C230.963 127.999 230.693 127.635 230.431 127.392C230.17 127.149 229.806 127.028 229.339 127.028C228.705 127.028 228.117 127.289 227.575 127.812C227.053 128.335 226.633 129.156 226.315 130.276C225.998 131.396 225.839 132.805 225.839 134.504V144.528C225.839 145.107 225.895 145.527 226.007 145.788C226.119 146.049 226.343 146.227 226.679 146.32C227.034 146.413 227.585 146.46 228.331 146.46C228.406 146.46 228.443 146.516 228.443 146.628C228.443 146.74 228.406 146.796 228.331 146.796L226.399 146.768C225.97 146.749 225.335 146.74 224.495 146.74L222.787 146.768C222.489 146.787 222.069 146.796 221.527 146.796ZM228.835 137.416C227.547 137.117 226.147 136.968 224.635 136.968V136.24C225.774 136.24 227.202 136.147 228.919 135.96C228.975 135.96 229.022 136.035 229.059 136.184C229.097 136.315 229.115 136.464 229.115 136.632C229.115 136.819 229.078 137.005 229.003 137.192C228.947 137.36 228.891 137.435 228.835 137.416ZM230.431 146.796C230.394 146.796 230.375 146.74 230.375 146.628C230.375 146.516 230.394 146.46 230.431 146.46C231.01 146.46 231.402 146.329 231.607 146.068C231.831 145.788 231.943 145.275 231.943 144.528V139.516C231.943 138.881 231.878 138.424 231.747 138.144C231.635 137.864 231.43 137.724 231.131 137.724C230.889 137.724 230.534 137.827 230.067 138.032H230.039C229.965 138.032 229.909 137.985 229.871 137.892C229.834 137.78 229.834 137.715 229.871 137.696L234.099 135.736C234.118 135.717 234.146 135.708 234.183 135.708C234.277 135.708 234.37 135.755 234.463 135.848C234.575 135.941 234.631 136.025 234.631 136.1C234.631 136.324 234.622 136.529 234.603 136.716C234.566 137.463 234.547 138.377 234.547 139.46V144.528C234.547 145.275 234.65 145.788 234.855 146.068C235.079 146.329 235.481 146.46 236.059 146.46C236.134 146.46 236.171 146.516 236.171 146.628C236.171 146.74 236.134 146.796 236.059 146.796C235.574 146.796 235.182 146.787 234.883 146.768L233.259 146.74L231.579 146.768C231.299 146.787 230.917 146.796 230.431 146.796ZM245.364 146.796C245.308 146.796 245.28 146.74 245.28 146.628C245.28 146.516 245.308 146.46 245.364 146.46C245.943 146.46 246.335 146.329 246.54 146.068C246.746 145.788 246.848 145.275 246.848 144.528V140.496C246.848 139.488 246.662 138.741 246.288 138.256C245.934 137.771 245.364 137.528 244.58 137.528C244.002 137.528 243.414 137.677 242.816 137.976C242.238 138.256 241.78 138.629 241.444 139.096L241.304 138.76C241.976 137.789 242.723 137.033 243.544 136.492C244.384 135.932 245.271 135.652 246.204 135.652C247.212 135.652 248.006 135.979 248.584 136.632C249.182 137.267 249.48 138.107 249.48 139.152V144.528C249.48 145.275 249.583 145.788 249.788 146.068C250.012 146.329 250.414 146.46 250.992 146.46C251.048 146.46 251.076 146.516 251.076 146.628C251.076 146.74 251.048 146.796 250.992 146.796C250.507 146.796 250.124 146.787 249.844 146.768L248.164 146.74L246.54 146.768C246.242 146.787 245.85 146.796 245.364 146.796ZM237.832 146.796C237.776 146.796 237.748 146.74 237.748 146.628C237.748 146.516 237.776 146.46 237.832 146.46C238.411 146.46 238.803 146.329 239.008 146.068C239.214 145.788 239.316 145.275 239.316 144.528V139.264C239.316 138.685 239.242 138.265 239.092 138.004C238.962 137.724 238.747 137.584 238.448 137.584C238.131 137.584 237.683 137.715 237.104 137.976H237.048C236.992 137.976 236.946 137.929 236.908 137.836C236.89 137.743 236.899 137.687 236.936 137.668L240.828 135.764C240.94 135.727 241.006 135.708 241.024 135.708C241.248 135.708 241.454 135.951 241.64 136.436C241.846 136.903 241.948 137.528 241.948 138.312V144.528C241.948 145.275 242.051 145.788 242.256 146.068C242.48 146.329 242.882 146.46 243.46 146.46C243.516 146.46 243.544 146.516 243.544 146.628C243.544 146.74 243.516 146.796 243.46 146.796C242.975 146.796 242.592 146.787 242.312 146.768L240.632 146.74L238.98 146.768C238.7 146.787 238.318 146.796 237.832 146.796ZM258.059 147.132C256.883 147.132 255.865 146.889 255.007 146.404C254.148 145.9 253.495 145.237 253.047 144.416C252.599 143.576 252.375 142.671 252.375 141.7C252.375 140.617 252.645 139.619 253.187 138.704C253.728 137.789 254.475 137.071 255.427 136.548C256.397 136.007 257.489 135.736 258.703 135.736C259.86 135.736 260.756 135.997 261.391 136.52C262.025 137.043 262.343 137.855 262.343 138.956C262.343 139.535 262.24 139.824 262.035 139.824H259.347C259.384 138.685 259.272 137.817 259.011 137.22C258.749 136.604 258.292 136.296 257.639 136.296C256.892 136.296 256.295 136.679 255.847 137.444C255.417 138.209 255.203 139.227 255.203 140.496C255.203 142.139 255.576 143.427 256.323 144.36C257.088 145.293 258.18 145.76 259.599 145.76C260.103 145.76 260.532 145.704 260.887 145.592C261.241 145.461 261.708 145.256 262.287 144.976L262.343 144.948C262.38 144.948 262.417 144.985 262.455 145.06C262.511 145.135 262.52 145.191 262.483 145.228C261.792 145.9 261.092 146.385 260.383 146.684C259.673 146.983 258.899 147.132 258.059 147.132ZM254.195 139.32L260.327 139.208V139.824L254.223 139.852L254.195 139.32ZM268.31 147.16C267.488 147.16 266.742 146.945 266.07 146.516C265.416 146.087 264.894 145.461 264.502 144.64C264.11 143.8 263.914 142.82 263.914 141.7C263.914 140.281 264.24 139.124 264.894 138.228C265.566 137.313 266.387 136.651 267.358 136.24C268.347 135.829 269.336 135.624 270.326 135.624C271.464 135.624 272.612 135.913 273.77 136.492L273.126 138.76C272.734 137.92 272.286 137.313 271.782 136.94C271.278 136.548 270.652 136.352 269.906 136.352C268.898 136.352 268.123 136.707 267.582 137.416C267.059 138.107 266.798 139.236 266.798 140.804C266.798 142.372 267.078 143.604 267.638 144.5C268.198 145.377 268.935 145.816 269.85 145.816C270.522 145.816 271.128 145.639 271.67 145.284C272.23 144.911 272.818 144.388 273.434 143.716L273.714 143.968C272.855 144.92 272.006 145.695 271.166 146.292C270.344 146.871 269.392 147.16 268.31 147.16ZM275.142 143.548C275.142 144.183 275.198 144.631 275.31 144.892C275.44 145.153 275.646 145.284 275.926 145.284C276.168 145.284 276.551 145.181 277.074 144.976H277.102C277.158 144.976 277.204 145.023 277.242 145.116C277.298 145.209 277.307 145.265 277.27 145.284L273.406 147.16L273.266 147.188C273.06 147.188 272.883 146.945 272.734 146.46C272.584 145.975 272.51 145.321 272.51 144.5V130.304C272.51 129.651 272.444 129.184 272.314 128.904C272.202 128.624 271.996 128.484 271.698 128.484C271.455 128.484 271.11 128.587 270.662 128.792H270.634C270.559 128.792 270.494 128.745 270.438 128.652C270.4 128.54 270.4 128.475 270.438 128.456L274.554 126.524L274.666 126.496C274.759 126.496 274.862 126.543 274.974 126.636C275.086 126.711 275.142 126.785 275.142 126.86V143.548ZM289.818 144.416C289.818 144.901 289.855 145.256 289.93 145.48C290.004 145.685 290.144 145.825 290.35 145.9C290.574 145.975 290.928 146.012 291.414 146.012H292.366C293.822 146.012 295.082 145.629 296.146 144.864C297.21 144.08 297.919 143.025 298.274 141.7C298.274 141.663 298.311 141.644 298.386 141.644C298.423 141.644 298.46 141.663 298.498 141.7C298.554 141.719 298.582 141.737 298.582 141.756C298.414 143.604 298.33 145.144 298.33 146.376C298.33 146.525 298.292 146.637 298.218 146.712C298.162 146.768 298.059 146.796 297.91 146.796H284.694C284.656 146.796 284.638 146.74 284.638 146.628C284.638 146.516 284.656 146.46 284.694 146.46C285.291 146.46 285.72 146.413 285.982 146.32C286.262 146.227 286.448 146.049 286.542 145.788C286.654 145.508 286.71 145.088 286.71 144.528V131.564C286.71 131.004 286.654 130.593 286.542 130.332C286.448 130.071 286.262 129.893 285.982 129.8C285.702 129.688 285.272 129.632 284.694 129.632C284.656 129.632 284.638 129.576 284.638 129.464C284.638 129.352 284.656 129.296 284.694 129.296L286.122 129.324C286.98 129.361 287.69 129.38 288.25 129.38C288.81 129.38 289.519 129.361 290.378 129.324L291.806 129.296C291.862 129.296 291.89 129.352 291.89 129.464C291.89 129.576 291.862 129.632 291.806 129.632C291.227 129.632 290.798 129.688 290.518 129.8C290.238 129.893 290.051 130.08 289.958 130.36C289.864 130.621 289.818 131.032 289.818 131.592V144.416ZM300.203 146.796C300.147 146.796 300.119 146.74 300.119 146.628C300.119 146.516 300.147 146.46 300.203 146.46C300.782 146.46 301.174 146.329 301.379 146.068C301.585 145.788 301.687 145.275 301.687 144.528V139.516C301.687 138.881 301.622 138.424 301.491 138.144C301.361 137.864 301.146 137.724 300.847 137.724C300.605 137.724 300.259 137.827 299.811 138.032H299.783C299.709 138.032 299.653 137.985 299.615 137.892C299.578 137.78 299.587 137.715 299.643 137.696L303.871 135.736L303.955 135.708C304.049 135.708 304.142 135.755 304.235 135.848C304.329 135.941 304.375 136.025 304.375 136.1V136.716C304.338 137.463 304.319 138.377 304.319 139.46V144.528C304.319 145.275 304.422 145.788 304.627 146.068C304.851 146.329 305.253 146.46 305.831 146.46C305.887 146.46 305.915 146.516 305.915 146.628C305.915 146.74 305.887 146.796 305.831 146.796C305.346 146.796 304.963 146.787 304.683 146.768L303.003 146.74L301.351 146.768C301.071 146.787 300.689 146.796 300.203 146.796ZM302.891 132.936C302.35 132.936 301.93 132.787 301.631 132.488C301.333 132.189 301.183 131.769 301.183 131.228C301.183 130.743 301.333 130.36 301.631 130.08C301.949 129.781 302.369 129.632 302.891 129.632C303.414 129.632 303.815 129.772 304.095 130.052C304.375 130.332 304.515 130.724 304.515 131.228C304.515 131.769 304.375 132.189 304.095 132.488C303.815 132.787 303.414 132.936 302.891 132.936ZM319.179 135.988C319.216 135.988 319.235 136.044 319.235 136.156C319.235 136.268 319.216 136.324 319.179 136.324C318.637 136.324 318.152 136.529 317.723 136.94C317.312 137.351 316.92 137.985 316.547 138.844L313.103 146.796C313.084 146.889 312.981 146.936 312.795 146.936C312.645 146.936 312.543 146.889 312.487 146.796L308.203 138.312C307.811 137.491 307.465 136.959 307.167 136.716C306.868 136.455 306.504 136.324 306.075 136.324C306.019 136.324 305.991 136.268 305.991 136.156C305.991 136.044 306.019 135.988 306.075 135.988C306.411 135.988 306.691 135.997 306.915 136.016L308.791 136.044L310.947 136.016C311.264 135.997 311.703 135.988 312.263 135.988C312.319 135.988 312.347 136.044 312.347 136.156C312.347 136.268 312.319 136.324 312.263 136.324C311.18 136.324 310.639 136.539 310.639 136.968C310.639 137.08 310.685 137.229 310.779 137.416L314.139 143.744L312.711 146.208L315.763 138.816C315.912 138.424 315.987 138.088 315.987 137.808C315.987 137.341 315.828 136.977 315.511 136.716C315.193 136.455 314.755 136.324 314.195 136.324C314.157 136.324 314.139 136.268 314.139 136.156C314.139 136.044 314.157 135.988 314.195 135.988C314.699 135.988 315.081 135.997 315.343 136.016L317.023 136.044L318.143 136.016C318.367 135.997 318.712 135.988 319.179 135.988ZM319.891 146.796C319.835 146.796 319.807 146.74 319.807 146.628C319.807 146.516 319.835 146.46 319.891 146.46C320.469 146.46 320.861 146.329 321.067 146.068C321.272 145.788 321.375 145.275 321.375 144.528V139.516C321.375 138.881 321.309 138.424 321.179 138.144C321.048 137.864 320.833 137.724 320.535 137.724C320.292 137.724 319.947 137.827 319.499 138.032H319.471C319.396 138.032 319.34 137.985 319.303 137.892C319.265 137.78 319.275 137.715 319.331 137.696L323.559 135.736L323.643 135.708C323.736 135.708 323.829 135.755 323.923 135.848C324.016 135.941 324.063 136.025 324.063 136.1V136.716C324.025 137.463 324.007 138.377 324.007 139.46V144.528C324.007 145.275 324.109 145.788 324.315 146.068C324.539 146.329 324.94 146.46 325.519 146.46C325.575 146.46 325.603 146.516 325.603 146.628C325.603 146.74 325.575 146.796 325.519 146.796C325.033 146.796 324.651 146.787 324.371 146.768L322.691 146.74L321.039 146.768C320.759 146.787 320.376 146.796 319.891 146.796ZM322.579 132.936C322.037 132.936 321.617 132.787 321.319 132.488C321.02 132.189 320.871 131.769 320.871 131.228C320.871 130.743 321.02 130.36 321.319 130.08C321.636 129.781 322.056 129.632 322.579 129.632C323.101 129.632 323.503 129.772 323.783 130.052C324.063 130.332 324.203 130.724 324.203 131.228C324.203 131.769 324.063 132.189 323.783 132.488C323.503 132.787 323.101 132.936 322.579 132.936ZM334.778 146.796C334.722 146.796 334.694 146.74 334.694 146.628C334.694 146.516 334.722 146.46 334.778 146.46C335.357 146.46 335.749 146.329 335.954 146.068C336.16 145.788 336.262 145.275 336.262 144.528V140.496C336.262 139.488 336.076 138.741 335.702 138.256C335.348 137.771 334.778 137.528 333.994 137.528C333.416 137.528 332.828 137.677 332.23 137.976C331.652 138.256 331.194 138.629 330.858 139.096L330.718 138.76C331.39 137.789 332.137 137.033 332.958 136.492C333.798 135.932 334.685 135.652 335.618 135.652C336.626 135.652 337.42 135.979 337.998 136.632C338.596 137.267 338.894 138.107 338.894 139.152V144.528C338.894 145.275 338.997 145.788 339.202 146.068C339.426 146.329 339.828 146.46 340.406 146.46C340.462 146.46 340.49 146.516 340.49 146.628C340.49 146.74 340.462 146.796 340.406 146.796C339.921 146.796 339.538 146.787 339.258 146.768L337.578 146.74L335.954 146.768C335.656 146.787 335.264 146.796 334.778 146.796ZM327.246 146.796C327.19 146.796 327.162 146.74 327.162 146.628C327.162 146.516 327.19 146.46 327.246 146.46C327.825 146.46 328.217 146.329 328.422 146.068C328.628 145.788 328.73 145.275 328.73 144.528V139.264C328.73 138.685 328.656 138.265 328.506 138.004C328.376 137.724 328.161 137.584 327.862 137.584C327.545 137.584 327.097 137.715 326.518 137.976H326.462C326.406 137.976 326.36 137.929 326.322 137.836C326.304 137.743 326.313 137.687 326.35 137.668L330.242 135.764C330.354 135.727 330.42 135.708 330.438 135.708C330.662 135.708 330.868 135.951 331.054 136.436C331.26 136.903 331.362 137.528 331.362 138.312V144.528C331.362 145.275 331.465 145.788 331.67 146.068C331.894 146.329 332.296 146.46 332.874 146.46C332.93 146.46 332.958 146.516 332.958 146.628C332.958 146.74 332.93 146.796 332.874 146.796C332.389 146.796 332.006 146.787 331.726 146.768L330.046 146.74L328.394 146.768C328.114 146.787 327.732 146.796 327.246 146.796ZM345.989 154.692C344.701 154.692 343.646 154.393 342.825 153.796C342.003 153.217 341.593 152.452 341.593 151.5C341.593 150.847 341.835 150.184 342.321 149.512C342.825 148.84 343.693 148.131 344.925 147.384L345.205 147.692C344.477 148.159 344.113 148.943 344.113 150.044C344.113 151.239 344.458 152.163 345.149 152.816C345.858 153.469 346.698 153.796 347.669 153.796C348.621 153.796 349.377 153.497 349.937 152.9C350.497 152.303 350.777 151.491 350.777 150.464C350.777 149.661 350.599 149.073 350.245 148.7C349.909 148.345 349.461 148.121 348.901 148.028C348.359 147.953 347.566 147.907 346.521 147.888C345.251 147.851 344.243 147.692 343.497 147.412C342.769 147.132 342.405 146.553 342.405 145.676C342.405 144.985 342.638 144.341 343.105 143.744C343.59 143.128 344.318 142.587 345.289 142.12L345.541 142.288C345.149 142.512 344.859 142.764 344.673 143.044C344.505 143.305 344.421 143.632 344.421 144.024C344.421 144.528 344.551 144.892 344.813 145.116C345.093 145.34 345.457 145.48 345.905 145.536C346.353 145.592 347.015 145.629 347.893 145.648C348.994 145.667 349.89 145.732 350.581 145.844C351.29 145.956 351.878 146.236 352.345 146.684C352.83 147.113 353.073 147.776 353.073 148.672C353.073 149.717 352.746 150.697 352.093 151.612C351.458 152.545 350.59 153.292 349.489 153.852C348.406 154.412 347.239 154.692 345.989 154.692ZM346.465 143.072C345.587 143.072 344.813 142.895 344.141 142.54C343.487 142.167 342.983 141.691 342.629 141.112C342.274 140.533 342.097 139.927 342.097 139.292C342.097 138.545 342.339 137.911 342.825 137.388C343.31 136.865 343.926 136.473 344.673 136.212C345.438 135.932 346.213 135.792 346.997 135.792C347.837 135.792 348.583 135.951 349.237 136.268C349.909 136.567 350.431 136.987 350.805 137.528C351.197 138.051 351.393 138.639 351.393 139.292C351.393 140.039 351.15 140.701 350.665 141.28C350.179 141.859 349.554 142.307 348.789 142.624C348.042 142.923 347.267 143.072 346.465 143.072ZM347.193 142.568C347.603 142.568 347.949 142.363 348.229 141.952C348.509 141.541 348.649 140.916 348.649 140.076C348.649 139.273 348.518 138.592 348.257 138.032C347.995 137.453 347.659 137.024 347.249 136.744C346.857 136.464 346.465 136.324 346.073 136.324C345.233 136.324 344.813 137.033 344.813 138.452C344.813 139.236 344.925 139.945 345.149 140.58C345.373 141.196 345.662 141.681 346.017 142.036C346.39 142.391 346.782 142.568 347.193 142.568ZM349.405 137.136C350.021 136.651 350.618 136.296 351.197 136.072C351.775 135.829 352.391 135.708 353.045 135.708C353.194 135.708 353.269 135.969 353.269 136.492C353.269 136.772 353.231 137.071 353.157 137.388C353.082 137.687 353.007 137.808 352.933 137.752C352.167 137.435 351.477 137.276 350.861 137.276C350.394 137.276 349.946 137.351 349.517 137.5L349.349 138.032L349.405 137.136Z" fill="#D4AF37"/>
<path d="M440.268 106.942C440.268 106.526 440.094 106.318 439.747 106.318C438.013 106.318 436.348 105.381 434.752 103.508C433.156 101.635 431.145 98.235 428.716 93.3091L419.299 73.7959L408.299 79.7959L417.789 97.784C419.177 100.559 419.871 102.536 419.871 103.716C419.871 104.687 419.454 105.381 418.622 105.797C417.859 106.144 416.575 106.318 414.771 106.318C414.494 106.318 414.355 106.526 414.355 106.942C414.355 107.358 414.494 107.566 414.771 107.566C416.159 107.566 418.032 107.497 420.391 107.358C422.889 107.219 425.005 107.15 426.739 107.15C428.057 107.15 430.243 107.219 433.295 107.358C436.209 107.497 438.36 107.566 439.747 107.566C440.094 107.566 440.268 107.358 440.268 106.942Z" fill="#D4AF37"/>
<path d="M402.049 50.5795C402.35 50.7238 402.65 50.868 402.951 51.0123C403.103 50.6742 403.253 50.3273 403.4 49.9839C404.767 46.6974 406.106 43.3822 406.733 39.8371C407.176 36.6579 406.788 33.4815 406.226 30.3855C406.156 30.0219 406.083 29.6576 406 29.2959C406.067 29.6609 406.124 30.0279 406.177 30.3938C406.601 33.5034 406.836 36.6995 406.267 39.7547C405.506 43.1645 404.031 46.4093 402.535 49.5916C402.375 49.9229 402.209 50.2634 402.049 50.5795Z" fill="#9FAF90"/>
<path d="M381.5 86.7959C381.5 86.7959 388.756 73.362 397 66.2959C404 60.2959 417.5 56.2959 422 53.7959C428.763 50.0385 435 40.2959 435 40.2959" stroke="#9FAF90"/>
<path d="M380.5 88.7959C380.5 88.7959 384.882 70.507 392 61.2959C400.5 50.2959 410.308 46.5409 419.5 34.7959C428.5 23.2959 435.5 0.795898 435.5 0.795898" stroke="#9FAF90"/>
<path d="M379.5 93.2959L379.5 88.7959C379.5 88.7959 379.097 81.6803 379.5 77.7959C380.513 68.0209 385.5 66.7959 388 59.2959C390.5 51.7959 388.675 37.3864 393 27.2959C394.5 23.7959 395.619 20.88 400.5 18.2959C400.886 18.0916 404.5 16.2959 404.5 16.2959L405.5 15.7959" stroke="#9FAF90"/>
<path d="M379.402 98.4084C379.402 100.906 380.269 102.849 382.004 104.236C383.807 105.624 386.201 106.317 389.184 106.317C389.531 106.317 389.705 106.526 389.705 106.942C389.705 107.358 389.531 107.566 389.184 107.566C387.935 107.566 386.132 107.497 383.773 107.358C381.136 107.219 378.847 107.15 376.904 107.15C375.031 107.15 372.776 107.219 370.14 107.358C367.781 107.497 365.873 107.566 364.416 107.566C364.139 107.566 364 107.358 364 106.942C364 106.526 364.139 106.317 364.416 106.317C366.359 106.317 367.989 105.936 369.307 105.173C370.626 104.34 371.944 102.918 373.262 100.906C374.58 98.8246 376.141 95.772 377.945 91.748L379 89.2959L380.04 90.2959C380.272 89.5094 380.571 88.7485 381 87.7959L380.04 90.2959C379.819 91.0438 379.658 91.8148 379.5 92.7959C379.152 94.9602 379.402 98.4084 379.402 98.4084Z" fill="#D4AF37"/>
<path d="M379.402 98.4084C379.402 100.906 380.269 102.849 382.004 104.236C383.807 105.624 386.201 106.317 389.184 106.317C389.531 106.317 389.705 106.526 389.705 106.942C389.705 107.358 389.531 107.566 389.184 107.566C387.935 107.566 386.132 107.497 383.773 107.358C381.136 107.219 378.847 107.15 376.904 107.15C375.031 107.15 372.776 107.219 370.14 107.358C367.781 107.497 365.873 107.566 364.416 107.566C364.139 107.566 364 107.358 364 106.942C364 106.526 364.139 106.317 364.416 106.317C366.359 106.317 367.989 105.936 369.307 105.173C370.626 104.34 371.944 102.918 373.262 100.906C374.58 98.8246 376.141 95.772 377.945 91.748L379 89.2959L380.04 90.2959L381 87.7959C380.162 89.6544 379.824 90.7832 379.5 92.7959C379.152 94.9602 379.402 98.4084 379.402 98.4084Z" stroke="#D4AF37"/>
<path d="M381 87.7959C381.528 86.9748 384 85.7971 385 85.2965C386 84.7959 416.371 78.7959 428 60.2965C440.554 40.3242 435.5 0.795898 435.5 0.795898C435.5 0.795898 417.5 10.7959 396.5 19.7965C385 24.7254 380.652 37.7959 379 47.2959C375.924 64.9817 379 70.4514 379 85.2965C379 87.7959 378.778 89.4969 377.876 91.9012C377.416 93.1276 376.5 94.7959 376.5 94.7959" stroke="#9FAF90"/>
<path d="M377.945 91.748C376.141 95.772 374.58 98.8246 373.262 100.906C371.944 102.918 370.626 104.34 369.307 105.173C367.989 105.936 366.359 106.317 364.416 106.317C364.139 106.317 364 106.526 364 106.942C364 107.358 364.139 107.566 364.416 107.566C365.873 107.566 367.781 107.497 370.14 107.358C372.776 107.219 375.031 107.15 376.904 107.15C378.847 107.15 381.136 107.219 383.773 107.358C386.132 107.497 387.935 107.566 389.184 107.566C389.531 107.566 389.705 107.358 389.705 106.942C389.705 106.526 389.531 106.317 389.184 106.317C386.201 106.317 383.807 105.624 382.004 104.236C380.269 102.849 379.402 100.906 379.402 98.4084C379.402 98.4084 379.152 94.9602 379.5 92.7959C379.824 90.7832 380.162 89.6544 381 87.7959" stroke="url(#paint0_linear_2042_2)"/>
<defs>
<linearGradient id="paint0_linear_2042_2" x1="376.852" y1="87.7959" x2="376.852" y2="107.566" gradientUnits="userSpaceOnUse">
<stop stop-color="#9FAF90"/>
<stop offset="1" stop-color="#D4AF37"/>
</linearGradient>
</defs>
</svg>
